# xmcd
#
# Track frame offsets: 
#        150
#        19665
#        41485
#        56314
#        85719
#        100949
#        121085
#        139087
#        164869
#        185965
#        207599
#        229490
#        253907
#        273267
#        293086
#        314029
#
# Disc length: 4490 seconds
#
# Revision: 1
# Processed by: cddbd v1.5.2PL0 Copyright (c) Steve Scherf et al.
# Submitted via: ExactAudioCopyFreeDBPlugin 1.0
#
DISCID=f3118810
DTITLE=Muddy Waters - Electric Mud - After The Rain
DYEAR=2011
DGENRE=Blues
TTITLE0=I Just Want to Make Love to You
TTITLE1=I'm Your Hoochie Coochie Man
TTITLE2=Let's Spend the Night Together
TTITLE3=She's Alright
TTITLE4=Mannish Boy
TTITLE5=Herbert Harper's Free Press News
TTITLE6=Tom Cat
TTITLE7=The Same Thing
TTITLE8=I Am the Blues
TTITLE9=Ramblin' Mind
TTITLE10=Rollin' and Tumblin'
TTITLE11=Bottom of the Sea
TTITLE12=Honey Bee
TTITLE13=Blues and Trouble
TTITLE14=Hurtin' Soul
TTITLE15=Screamin' and Cryin'
EXTD=
EXTT0=
EXTT1=
EXTT2=
EXTT3=
EXTT4=
EXTT5=
EXTT6=
EXTT7=
EXTT8=
EXTT9=
EXTT10=
EXTT11=
EXTT12=
EXTT13=
EXTT14=
EXTT15=
PLAYORDER=
